<svg width="400" height="400" viewBox="0 0 400 400" fill="none" xmlns="http://www.w3.org/2000/svg">
<mask id="mask0_95_142" style="mask-type:alpha" maskUnits="userSpaceOnUse" x="0" y="0" width="400" height="400">
<rect x="1" y="399" width="398" height="398" rx="19" transform="rotate(-90 1 399)" fill="url(#paint0_radial_95_142)" fill-opacity="0.2"/>
<rect x="1" y="399" width="398" height="398" rx="19" transform="rotate(-90 1 399)" stroke="url(#paint1_radial_95_142)" stroke-width="2"/>
<rect x="1" y="399" width="398" height="398" rx="19" transform="rotate(-90 1 399)" stroke="url(#paint2_radial_95_142)" stroke-width="2"/>
</mask>
<g mask="url(#mask0_95_142)">
<g filter="url(#filter0_b_95_142)">
<rect y="400" width="400" height="400" rx="20" transform="rotate(-90 0 400)" fill="url(#paint3_radial_95_142)" fill-opacity="0.2"/>
<rect x="1" y="399" width="398" height="398" rx="19" transform="rotate(-90 1 399)" stroke="url(#paint4_radial_95_142)" stroke-width="2"/>
<rect x="1" y="399" width="398" height="398" rx="19" transform="rotate(-90 1 399)" stroke="url(#paint5_radial_95_142)" stroke-width="2"/>
</g>
</g>
<path d="M169.125 247.25V145.958L262.625 130.375V231.667" stroke="white" stroke-width="2" stroke-linecap="round" stroke-linejoin="round"/>
<path d="M145.75 270.625C158.66 270.625 169.125 260.16 169.125 247.25C169.125 234.34 158.66 223.875 145.75 223.875C132.84 223.875 122.375 234.34 122.375 247.25C122.375 260.16 132.84 270.625 145.75 270.625Z" stroke="white" stroke-width="2" stroke-linecap="round" stroke-linejoin="round"/>
<path d="M239.25 255.042C252.16 255.042 262.625 244.576 262.625 231.667C262.625 218.757 252.16 208.292 239.25 208.292C226.34 208.292 215.875 218.757 215.875 231.667C215.875 244.576 226.34 255.042 239.25 255.042Z" stroke="white" stroke-width="2" stroke-linecap="round" stroke-linejoin="round"/>
<defs>
<filter id="filter0_b_95_142" x="-80" y="-80" width="560" height="560" filterUnits="userSpaceOnUse" color-interpolation-filters="sRGB">
<feFlood flood-opacity="0" result="BackgroundImageFix"/>
<feGaussianBlur in="BackgroundImageFix" stdDeviation="40"/>
<feComposite in2="SourceAlpha" operator="in" result="effect1_backgroundBlur_95_142"/>
<feBlend mode="normal" in="SourceGraphic" in2="effect1_backgroundBlur_95_142" result="shape"/>
</filter>
<radialGradient id="paint0_radial_95_142" cx="0" cy="0" r="1" gradientUnits="userSpaceOnUse" gradientTransform="translate(61.2777 484.165) rotate(44.784) scale(508.091 550.49)">
<stop stop-color="#A5EFFF"/>
<stop offset="0.770833" stop-color="#6EBFF4" stop-opacity="0.223958"/>
<stop offset="1" stop-color="#4690D5" stop-opacity="0"/>
</radialGradient>
<radialGradient id="paint1_radial_95_142" cx="0" cy="0" r="1" gradientUnits="userSpaceOnUse" gradientTransform="translate(-55.0195 350.542) rotate(42.201) scale(434.011 855.138)">
<stop stop-color="#98F9FF"/>
<stop offset="1" stop-color="white" stop-opacity="0"/>
</radialGradient>
<radialGradient id="paint2_radial_95_142" cx="0" cy="0" r="1" gradientUnits="userSpaceOnUse" gradientTransform="translate(433.116 850.325) rotate(-133.066) scale(441.82 806.077)">
<stop stop-color="#EABFFF"/>
<stop offset="1" stop-color="#8726B7" stop-opacity="0"/>
</radialGradient>
<radialGradient id="paint3_radial_95_142" cx="0" cy="0" r="1" gradientUnits="userSpaceOnUse" gradientTransform="translate(61.2777 484.165) rotate(44.784) scale(508.091 550.49)">
<stop stop-color="#A5EFFF"/>
<stop offset="0.770833" stop-color="#6EBFF4" stop-opacity="0.223958"/>
<stop offset="1" stop-color="#4690D5" stop-opacity="0"/>
</radialGradient>
<radialGradient id="paint4_radial_95_142" cx="0" cy="0" r="1" gradientUnits="userSpaceOnUse" gradientTransform="translate(-55.0195 350.542) rotate(42.201) scale(434.011 855.138)">
<stop stop-color="#98F9FF"/>
<stop offset="1" stop-color="white" stop-opacity="0"/>
</radialGradient>
<radialGradient id="paint5_radial_95_142" cx="0" cy="0" r="1" gradientUnits="userSpaceOnUse" gradientTransform="translate(433.116 850.325) rotate(-133.066) scale(441.82 806.077)">
<stop stop-color="#EABFFF"/>
<stop offset="1" stop-color="#8726B7" stop-opacity="0"/>
</radialGradient>
</defs>
</svg>
